HIERARCHY
ROOT Hips
{
	OFFSET -14.64140 90.27770 -84.91600
	CHANNELS 6 Xposition Yposition Zposition Zrotation Xrotation Yrotation
	JOINT Spine
	{
		OFFSET 0.00000 13.20850 -1.60436
		CHANNELS 3 Zrotation Xrotation Yrotation
		JOINT Spine1
		{
			OFFSET 0.00000 8.61716 0.00000
			CHANNELS 3 Zrotation Xrotation Yrotation
			JOINT Spine2
			{
				OFFSET 0.00000 8.61717 0.00000
				CHANNELS 3 Zrotation Xrotation Yrotation
				JOINT Spine3
				{
					OFFSET 0.00000 8.61717 0.00000
					CHANNELS 3 Zrotation Xrotation Yrotation
					JOINT Neck
					{
						OFFSET 0.00000 11.07920 1.10792
						CHANNELS 3 Zrotation Xrotation Yrotation
						JOINT Neck1
						{
							OFFSET 0.00000 7.08032 0.00000
							CHANNELS 3 Zrotation Xrotation Yrotation
							JOINT Head
							{
								OFFSET 0.00000 7.08031 0.00000
								CHANNELS 3 Zrotation Xrotation Yrotation
								End site
								{
									OFFSET 0.00000 0.00000 0.00000
								}
							}
						}
					}
					JOINT RightShoulder
					{
						OFFSET -0.01000 7.91373 5.19711
						CHANNELS 3 Zrotation Xrotation Yrotation
						JOINT RightArm
						{
							OFFSET -18.41580 0.00000 0.00000
							CHANNELS 3 Zrotation Xrotation Yrotation
							JOINT RightForeArm
							{
								OFFSET -29.11090 0.00000 0.00000
								CHANNELS 3 Zrotation Xrotation Yrotation
								JOINT RightHand
								{
									OFFSET -24.65040 0.00000 0.00000
									CHANNELS 3 Zrotation Xrotation Yrotation
									JOINT RightHandThumb1
									{
										OFFSET -5.35114 -0.85590 3.97906
										CHANNELS 3 Zrotation Xrotation Yrotation
										JOINT RightHandThumb2
										{
											OFFSET -4.52789 0.00000 0.00000
											CHANNELS 3 Zrotation Xrotation Yrotation
											JOINT RightHandThumb3
											{
												OFFSET -2.46976 0.00000 0.00000
												CHANNELS 3 Zrotation Xrotation Yrotation
												End site
												{
													OFFSET 0.00000 0.00000 0.00000
												}
											}
										}
									}
									JOINT RightHandIndex1
									{
										OFFSET -14.26970 0.00000 2.88139
										CHANNELS 3 Zrotation Xrotation Yrotation
										JOINT RightHandIndex2
										{
											OFFSET -5.48836 0.00000 0.00000
											CHANNELS 3 Zrotation Xrotation Yrotation
											JOINT RightHandIndex3
											{
												OFFSET -3.01859 0.00000 0.00000
												CHANNELS 3 Zrotation Xrotation Yrotation
												End site
												{
													OFFSET 0.00000 0.00000 0.00000
												}
											}
										}
									}
									JOINT RightHandMiddle1
									{
										OFFSET -14.26970 0.00000 -0.09147
										CHANNELS 3 Zrotation Xrotation Yrotation
										JOINT RightHandMiddle2
										{
											OFFSET -6.17441 0.00000 0.00000
											CHANNELS 3 Zrotation Xrotation Yrotation
											JOINT RightHandMiddle3
											{
												OFFSET -3.56743 0.00000 0.00000
												CHANNELS 3 Zrotation Xrotation Yrotation
												End site
												{
													OFFSET 0.00000 0.00000 0.00000
												}
											}
										}
									}
									JOINT RightHandRing1
									{
										OFFSET -12.69180 0.00000 -3.06433
										CHANNELS 3 Zrotation Xrotation Yrotation
										JOINT RightHandRing2
										{
											OFFSET -5.62556 0.00000 0.00000
											CHANNELS 3 Zrotation Xrotation Yrotation
											JOINT RightHandRing3
											{
												OFFSET -3.56744 0.00000 0.00000
												CHANNELS 3 Zrotation Xrotation Yrotation
												End site
												{
													OFFSET 0.00000 0.00000 0.00000
												}
											}
										}
									}
									JOINT RightHandPinky1
									{
										OFFSET -11.11390 0.00000 -6.03719
										CHANNELS 3 Zrotation Xrotation Yrotation
										JOINT RightHandPinky2
										{
											OFFSET -4.52789 0.00000 0.00000
											CHANNELS 3 Zrotation Xrotation Yrotation
											JOINT RightHandPinky3
											{
												OFFSET -2.46976 0.00000 0.00000
												CHANNELS 3 Zrotation Xrotation Yrotation
												End site
												{
													OFFSET 0.00000 0.00000 0.00000
												}
											}
										}
									}
								}
							}
						}
					}
					JOINT LeftShoulder
					{
						OFFSET 0.01000 7.91373 5.19711
						CHANNELS 3 Zrotation Xrotation Yrotation
						JOINT LeftArm
						{
							OFFSET 18.41580 0.00000 0.00000
							CHANNELS 3 Zrotation Xrotation Yrotation
							JOINT LeftForeArm
							{
								OFFSET 29.11090 0.00000 0.00000
								CHANNELS 3 Zrotation Xrotation Yrotation
								JOINT LeftHand
								{
									OFFSET 24.65040 0.00000 0.00000
									CHANNELS 3 Zrotation Xrotation Yrotation
									JOINT LeftHandThumb1
									{
										OFFSET 5.35114 -0.85590 3.97906
										CHANNELS 3 Zrotation Xrotation Yrotation
										JOINT LeftHandThumb2
										{
											OFFSET 4.52789 0.00000 0.00000
											CHANNELS 3 Zrotation Xrotation Yrotation
											JOINT LeftHandThumb3
											{
												OFFSET 2.46977 0.00000 0.00000
												CHANNELS 3 Zrotation Xrotation Yrotation
												End site
												{
													OFFSET 0.00000 0.00000 0.00000
												}
											}
										}
									}
									JOINT LeftHandIndex1
									{
										OFFSET 14.26970 0.00000 2.88139
										CHANNELS 3 Zrotation Xrotation Yrotation
										JOINT LeftHandIndex2
										{
											OFFSET 5.48836 0.00000 0.00000
											CHANNELS 3 Zrotation Xrotation Yrotation
											JOINT LeftHandIndex3
											{
												OFFSET 3.01859 0.00000 0.00000
												CHANNELS 3 Zrotation Xrotation Yrotation
												End site
												{
													OFFSET 0.00000 0.00000 0.00000
												}
											}
										}
									}
									JOINT LeftHandMiddle1
									{
										OFFSET 14.26970 0.00000 -0.09147
										CHANNELS 3 Zrotation Xrotation Yrotation
										JOINT LeftHandMiddle2
										{
											OFFSET 6.17440 0.00000 0.00000
											CHANNELS 3 Zrotation Xrotation Yrotation
											JOINT LeftHandMiddle3
											{
												OFFSET 3.56744 0.00000 0.00000
												CHANNELS 3 Zrotation Xrotation Yrotation
												End site
												{
													OFFSET 0.00000 0.00000 0.00000
												}
											}
										}
									}
									JOINT LeftHandRing1
									{
										OFFSET 12.69180 0.00000 -3.06433
										CHANNELS 3 Zrotation Xrotation Yrotation
										JOINT LeftHandRing2
										{
											OFFSET 5.62556 0.00000 0.00000
											CHANNELS 3 Zrotation Xrotation Yrotation
											JOINT LeftHandRing3
											{
												OFFSET 3.56744 0.00000 0.00000
												CHANNELS 3 Zrotation Xrotation Yrotation
												End site
												{
													OFFSET 0.00000 0.00000 0.00000
												}
											}
										}
									}
									JOINT LeftHandPinky1
									{
										OFFSET 11.11390 0.00000 -6.03719
										CHANNELS 3 Zrotation Xrotation Yrotation
										JOINT LeftHandPinky2
										{
											OFFSET 4.52789 0.00000 0.00000
											CHANNELS 3 Zrotation Xrotation Yrotation
											JOINT LeftHandPinky3
											{
												OFFSET 2.46976 0.00000 0.00000
												CHANNELS 3 Zrotation Xrotation Yrotation
												End site
												{
													OFFSET 0.00000 0.00000 0.00000
												}
											}
										}
									}
								}
							}
						}
					}
					JOINT pCube4
					{
						OFFSET 0.00000 10.91090 1.10792
						CHANNELS 3 Zrotation Xrotation Yrotation
						End site
						{
							OFFSET 0.00000 0.00000 0.00000
						}
					}
				}
			}
		}
	}
	JOINT RightUpLeg
	{
		OFFSET -9.98441 0.00000 0.00000
		CHANNELS 3 Zrotation Xrotation Yrotation
		JOINT RightLeg
		{
			OFFSET 0.00000 -42.11790 0.00000
			CHANNELS 3 Zrotation Xrotation Yrotation
			JOINT RightFoot
			{
				OFFSET 0.00000 -45.00020 -0.00001
				CHANNELS 3 Zrotation Xrotation Yrotation
				JOINT RightForeFoot
				{
					OFFSET 0.00000 -3.74820 0.00000
					CHANNELS 3 Zrotation Xrotation Yrotation
					JOINT RightToeBase
					{
						OFFSET 0.00000 0.06325 14.43120
						CHANNELS 3 Zrotation Xrotation Yrotation
						End site
						{
							OFFSET 0.00000 0.00000 0.00000
						}
					}
				}
			}
		}
	}
	JOINT LeftUpLeg
	{
		OFFSET 9.98441 0.00000 0.00000
		CHANNELS 3 Zrotation Xrotation Yrotation
		JOINT LeftLeg
		{
			OFFSET 0.00000 -42.11800 0.00000
			CHANNELS 3 Zrotation Xrotation Yrotation
			JOINT LeftFoot
			{
				OFFSET 0.00000 -45.00070 0.00000
				CHANNELS 3 Zrotation Xrotation Yrotation
				JOINT LeftForeFoot
				{
					OFFSET 0.00000 -3.74824 0.00000
					CHANNELS 3 Zrotation Xrotation Yrotation
					JOINT LeftToeBase
					{
						OFFSET 0.00000 0.06325 14.43110
						CHANNELS 3 Zrotation Xrotation Yrotation
						End site
						{
							OFFSET 0.00000 0.00000 0.00000
						}
					}
				}
			}
		}
	}
}
MOTION
Frames: 4
Frame Time: 0.050000
0.0033328635582233466 0.011821940571076028 -0.037205784409968266 -0.04785699559883294 0.013124216100332342 0.028194429993347855 -4.7114557816162455 0.8409301974619304 -0.5074728875542857 -0.9452242134879413 3.3129755176814344 0.4136433990943829 -1.202497196782893 -1.7669660184281657 -1.1886919902534545 -0.6566319043590205 0.24798144181548037 -0.8301215520701173 -0.7774755965870502 12.25127696020666 1.0881048829538233 -0.014916254973658491 0.9834242365213133 0.2511374228599199 -0.454868407765582 -12.3552145862677 0.0998746938774669 -0.6384838643497552 1.0341182770400872 -12.644255852666703 68.24207248168874 14.649647503109108 5.8116132618156815 29.073978278821684 6.8352471856884245 84.47520630698874 24.01364109358679 -0.2993581216715438 -5.74300469290088 4.56941438545436 -0.15840242780372338 -1.5597939162710257 0.00036512367357554855 0.004946103752976415 -56.251496156452376 -0.017431710960253997 -0.038867103152569346 -56.196061305997404 -38.74181840099818 0.04562451288739465 -0.042761219612904626 0.026910416112654337 -0.017857960731530818 0.012652564783074008 -0.011302294767160555 0.01399513416234675 -0.007783131747681388 -36.6961240851999 0.04755777917747073 -0.020694160381752955 0.016352884666242587 0.019493654216790075 -0.04223060833986896 -0.01808576384340466 -0.02376426864640106 -0.03626689698538724 -19.74991752446192 -0.013976127346993137 -0.043118063172739106 -0.014940744988350727 0.010412578875151315 0.007503874745756144 0.04187234186412268 0.007017526807492667 -0.028211366447589526 24.0422436995163 0.026594510116505734 -0.028581028161709477 28.883096617241144 0.021044533720121 -0.014645814361177564 28.85937180136526 -0.04756439085778293 0.0423113816494627 4.244617419746839 1.350200641930731 12.885313945562148 -60.20672371223591 24.88457663055626 -21.628157201716654 2.4504159725320975 13.817405276465633 -67.11747958905497 -11.817100342034855 8.56544243417077 -6.0198924561799325 -0.507127276034124 0.06547893644980388 -8.081961427797951 0.010701071367233571 0.0298011657601185 44.60072286191422 0.023150353812666627 0.019700006914600974 44.5595906085711 12.477054014154932 -0.04548631648482005 -0.002085486483290091 -0.0016507897429634457 0.03743684240715409 -0.01992062033789818 0.029211814808189775 -0.043401767895288455 -0.01853653040577785 11.098594205850793 0.0033063199739844632 0.034773383265907176 -0.009900218869673433 -0.03283413200488125 -0.026332016696191788 -0.007275795509934558 0.00486984898541376 -0.02393993407797673 4.743453097467531 -0.04353874107445632 -0.03344490695297671 -0.04000588477128645 0.031163616464696283 -0.013248021764767455 0.003832953186533423 -0.010618491933849816 -0.016903876665726323 -5.586797337731602 -0.03664214165350998 0.0470896801364189 -6.769396071907351 -0.0260214282507127 0.003589518653588714 -6.70976760144909 -0.016847370387580784 0.013881477819443745 0.03656461417667018 -0.015389177350462347 0.01822788713672719 8.073606033059585 3.454711787872907 -19.228068489190466 0.02477042788192267 10.347065822533066 0.0007499098274897417 -5.632385859226053 -15.673546680597383 3.216875819131 -0.013393684516804647 0.046796265953029804 -0.04390674938320504 -0.011334055476326174 4.741884480419732 -0.0008954947127838636 12.425423827235479 -8.228333449532448 6.921152639330989 -0.024556650313442306 46.3375344939974 -0.010807528593400385 -4.319567283116863 -14.788286295872966 -3.864209126872163 -0.008234541450934973 0.03413870148250251 0.02961819901273366 0.025871958723987988 -10.71538808684168 -0.014380469485174253 
0.04252324568846137 0.026588693339008325 0.0018094830610295703 0.014219294970778326 0.024034490047193272 -0.0014674374163590246 -4.643264976284129 0.7945431494364884 -0.499411639917165 -0.9346145431004118 3.305808814307285 0.38247366652509807 -1.2276058120335471 -1.8089463624706845 -1.326781325817668 -0.5023584523587612 0.27571636427222634 -0.9395634095517461 -0.7645596743029646 12.23244516079487 0.8908005719652756 -0.10805731515534886 0.9826625070177548 -0.08830562501666586 -0.4207646022961771 -12.44880470394165 0.054592267276866606 -0.6279160836862554 1.0505205349005822 -12.610750835918624 68.2255819077252 14.94491426758486 5.444020864128102 29.389274000133764 7.197269351820328 83.30669171038828 24.29771852170739 -0.25720476878645765 -5.685801649939982 4.543329059618919 -0.12378750394084037 -1.6071880622402135 0.04154005578538359 0.02576177945486241 -56.19024387394039 0.022437159562317413 0.04056062506742656 -56.235001187144654 -38.73067252260329 -0.012344232543068465 -0.007677969991546233 -0.004115770181112392 -0.04021187180498414 -0.043773942877086434 0.025955819727371158 0.014021155358002227 0.027409204524816357 -36.70559795493909 0.04278713548326113 0.04256426373903251 -0.014083130600275554 0.00020982994212471 0.01893593471637287 0.013831852591466005 -0.0396594679384823 0.02085973937579906 -19.740408023757652 -0.0068632441842631595 0.041232524635140586 0.00030251301285780057 0.01750933248360533 0.002194525518996737 0.01991383212435417 -0.010537025864627122 0.0026058006492898716 24.05605179162545 -0.02245627328808948 0.01942675069593036 28.83317927761139 -0.01012658323672934 -0.031819617993673686 28.901123049512854 -0.008695131365394697 -0.008482430850230614 4.1434665755411855 1.3742183886069101 12.697331968506797 -60.145782619945784 25.505640455075348 -21.47880649734909 2.2268861005749945 13.451461462194311 -66.14455962935655 -11.81242490263604 8.539886312031275 -5.99426113606721 -0.4484747071608567 0.09921528175310725 -8.090543968649566 0.010082853649308355 0.013622735262292606 44.614224631654054 0.03176017537270412 0.01839220880462065 44.59342253329323 12.466495166949816 -0.004322373373149522 0.03980775904636823 -0.0006506384341263506 -0.003671839653293152 -0.0052562300520254315 0.03503091668556688 -0.002448857319757537 0.007270149287726787 11.13435367960596 0.024426755378422902 0.00014254095249704898 0.00019340822603119002 -0.03642518519205653 0.0373189118156693 0.0070727030153294726 -0.025370576638998863 0.008823910164654936 4.765564015939473 0.029733145274625665 0.004299778298935534 -0.03720376301445783 -0.048768195779537914 -0.015156528489848217 0.02413903848706771 0.02209930030509514 -0.01098706789483861 -5.601541790155768 0.02859791178542879 0.004935173819812347 -6.764693409609473 0.0006423078148257551 0.039442993934664966 -6.7103449629436875 0.04109207697513036 -0.03361069095899836 0.027080990104920263 -0.03281796587787857 0.02201463703354951 8.051456992345052 3.4631103871089146 -19.205508343741936 0.035640983600383556 10.37674595068685 0.0017901693118474414 -5.664664653913494 -15.688743179436736 3.192772846454197 0.03753322838391772 -0.04109295927704502 0.03318119346542732 0.019595221308363643 4.699107120911817 0.01598121768147886 12.46324855039545 -8.272601292530547 6.884849551366266 0.006050729929840298 46.34649442782578 0.012054713678260208 -4.350367607356779 -14.755538086107565 -3.80706331505915 -0.03944210087421736 -0.0330162390580373 -0.012471824006157215 0.0003195671923324857 -10.757571392823781 -0.009081396622586701 
-0.022972901529482316 0.02558902984031257 -0.02973270287655875 -0.04656178197812384 -0.016215585263260588 -0.039182445677194255 -4.54343011016339 0.753792584905971 -0.5251087877384765 -0.9388523678419625 3.2762149916519627 0.357741267828467 -1.1802343368568167 -1.8307293631755455 -1.413488794129275 -0.45708336585986425 0.2697424307743411 -0.9311623000830442 -0.6818204084625233 12.192759478269693 0.8241244406337245 0.0036944324852766913 1.0305495040805206 -0.10781485283638609 -0.30140195324774555 -12.439173180314645 0.06142831928045399 -0.6105511526274876 1.020669330944638 -12.66219174307363 68.31567596664196 14.953398585692153 5.236835178966995 30.11806128861055 7.456933546738486 82.27047561735239 24.407431098854858 -0.2801362897873533 -5.694478521426717 4.490372288949938 -0.119332147324348 -1.6397059825490568 -0.029829839653681463 0.02080669197322542 -56.23898775295781 -0.022777430124958163 0.02811470692329532 -56.24607086939541 -38.81619938455346 -0.03066309539495022 -0.04037099712989877 -0.010964037872593957 0.004977279212504243 0.022443162962849227 -0.04164007820989624 0.013776625270537432 -0.0014734064078097532 -36.655292698398426 0.027396052707303872 -0.0491450430335169 -0.015106933155245295 0.03317398449038536 0.003727121458135284 -0.022726510315593074 -0.01029182360002364 0.007240658257402472 -19.735909741956434 0.0030087913557661737 -0.03950123674227719 0.031916917335998184 -0.0447119571013167 0.015909679032756606 0.04379881048171671 0.033548306618926556 0.039151356746559396 24.04035660049533 -0.020392677442403286 -0.04716994044638027 28.85567643686865 0.03642530012646782 -0.01702003552140328 28.90382314882957 0.04294592409962897 0.045852393552488525 4.11483589635597 1.3703487525473521 12.539916146719339 -60.2257531858501 25.844382260357065 -21.396680066358325 1.704781935763015 13.001670478435937 -65.43756179713863 -11.855297278601565 8.610986692349243 -5.938462980765637 -0.4337930566340004 0.10692375166694658 -8.116075826187995 0.04738736092480348 0.015547282457563299 44.58905598110196 -0.006952264051161252 0.04755746478221404 44.61601279022908 12.436178187848263 0.023943108829381023 0.04253058193965625 -0.029483961101187697 0.02171060850323816 -0.04152697821600473 -0.013938855903879806 0.040623597405703676 0.009742592260671012 11.095962558477753 -0.038884094716248374 0.010763044323472117 0.03076010458324693 -0.010916057679533011 -0.01669448780847542 -0.01126830895131278 -0.027676846506397276 0.003421151499360845 4.774139273642702 0.03717955840866505 0.02741752496239714 0.027283175734816638 -0.025204627657523224 -0.007077334710431085 -0.023636134260054092 -0.005583049316441962 0.01622170586542453 -5.629333439114061 0.0004560895446512496 -0.022068645613969862 -6.7437757794093764 -0.0030608620807148425 0.018404505136415592 -6.766252092816882 -0.009517485959058401 0.037871507182637446 -0.03625349586998885 0.044476398889087936 -0.00790757553838217 8.018788826082556 3.4935172577364866 -19.17386127907301 0.04005434822105634 10.369214394652953 -0.01852651190327181 -5.660093584675847 -15.610207634592443 3.180312743194525 -0.011284355683604022 0.010821272389116753 -0.048545043578405174 0.0365756791030731 4.684662292803936 0.038598884423802424 12.457295002011508 -8.250370313366039 6.91756876035953 0.035354428371592646 46.41571905765345 -0.02223269198345842 -4.366831698732779 -14.778620502390405 -3.830022703955964 -0.049821753938686805 0.03284828887619703 -0.0076718002389207915 -0.004408846944029096 -10.754497130849696 0.022890165844726886 
0.01793601083331846 -0.020190498233343353 0.004409013618444291 0.0374668973020537 0.009383915045151348 0.02340805614097958 -4.4583127052806235 0.6011241995076315 -0.5535921377142526 -0.8909494170136393 3.2887906332120327 0.3573891367510701 -1.2111413560331705 -1.8305803217900511 -1.5173000278257487 -0.4110554158827678 0.2819251845365459 -0.908404427303567 -0.6628301525778414 12.2821908572596 0.8189763030717028 -0.0230546732752311 0.9865511024306348 -0.1677803795619983 -0.3184482418447951 -12.426258191903276 0.07977107359733765 -0.7967205736840732 1.015410232338045 -12.645664978715056 68.44091775748747 14.818943011385954 5.121129589006796 30.855306200726517 7.638560488091387 81.38375072650729 24.522286482486027 -0.28423171879284026 -5.618656906672015 4.5079198246793 -0.12567985046738658 -1.5622698749306994 0.037892004439339176 0.0200754559835393 -56.25413204845753 0.03347623692076683 -0.023235587478293483 -56.189606974213824 -38.74134175980856 -0.002985095314954478 -0.006445697410335992 -0.047920557732286415 -0.026983611326466282 0.00876409843562673 0.021526301619571142 -0.002235342647180813 -0.039874928971268764 -36.69103567240652 0.023027755466218765 0.03017565258071326 -0.03076058402081238 0.01809015452314681 -0.04804957378837376 -0.04431386488122583 -0.03064457383772116 0.02030868787795744 -19.783144358711194 0.041637591263321894 0.03068442951949334 0.001962196832847519 0.04900029168327548 -0.015199280418566257 -0.03029063402237189 -0.02854499313592602 0.01191602770817419 24.01832714921903 -0.02627557088776624 0.046542629456984216 28.874283255220714 -0.03676330192344328 -0.018228057885585736 28.849506030285173 0.04888338750045565 -0.02818366940967999 4.203911626335922 1.3652914485724839 12.5144045023317 -60.34807843968949 26.044517303437463 -21.42861435156131 0.8529819272013778 12.520697227917934 -64.81136707382203 -11.727454097697153 8.740526267965818 -5.960162813509542 -0.4882320942323883 0.09479857443889442 -8.085775770809612 -0.02508365553610324 -0.03819986805742401 44.53464400316428 -0.045687130588520725 -0.00990813115339554 44.531562148823845 12.445742131216605 0.04542242746305956 0.025510414164818897 0.021299609948767877 0.0024879932131858695 0.03203643654596996 -0.043136972000150604 -0.04793254868255955 0.04440209356633016 11.150557093966974 -0.03303638441287235 -0.03175159609375048 0.02294344510529702 -0.020030935933399198 0.013926808166852598 0.01122369505682472 0.031131892355125014 -0.007877288311565433 4.790161131088093 0.026766382578642132 -0.02465485667109913 -0.03452867095334902 -0.0019323665996413167 -0.04223369678844759 -0.024891702233435117 -0.0027041181079227226 -0.005284161712641801 -5.575726878637326 -0.019159699671128932 0.0012229583504578024 -6.712843776528903 -0.04354455705639316 -0.04821052858173664 -6.677053265903889 -0.025953939758194013 0.018488397070223785 0.010147578469561554 0.02261034585604712 -0.0055914931813975275 8.007183330383967 3.48767272324077 -19.224407898813702 -0.015807340356457856 10.436768573395742 -0.006117638705395164 -5.643157662858666 -15.669989523495335 3.2097690825739247 -0.03694019415534006 -0.018202257079149645 -0.023562273467451288 -0.03948488989031734 4.715231682557182 -0.002801236446519199 12.428788929074546 -8.264438277701354 6.845712420838015 0.007630180770279877 46.36557645147818 -0.03022375714258225 -4.337989215096146 -14.722051452579265 -3.83937056808562 -0.011054296926816297 0.026633581899744574 -0.04581622234788829 -0.010603267310491693 -10.770863872104702 -0.010189291450286228 
